<?xml version="1.0" encoding="UTF-8" standalone="no"?>
<!DOCTYPE svg PUBLIC "-//W3C//DTD SVG 1.1//EN" "http://www.w3.org/Graphics/SVG/1.1/DTD/svg11.dtd">
<svg width="100%" height="100%" viewBox="0 0 662 261" version="1.1" xmlns="http://www.w3.org/2000/svg" xmlns:xlink="http://www.w3.org/1999/xlink" xml:space="preserve" xmlns:serif="http://www.serif.com/" style="fill-rule:evenodd;clip-rule:evenodd;">
    <rect x="0" y="0" width="1" height="1" style="fill:none;stroke:rgb(211,211,211);stroke-width:0.5px;"/>
    <g>
        <g>
            <path d="M45.7,222L627.16,222M45.7,32L45.7,222" style="fill:none;stroke:black;stroke-width:1px;"/>
            <path d="M620.163,217L627.163,222L620.163,227" style="fill:none;stroke:black;stroke-width:1px;"/>
            <path d="M40.704,39L45.704,32L50.704,39" style="fill:none;stroke:black;stroke-width:1px;"/>
        </g>
        <path d="M46.74,61L629.236,61" style="fill:none;stroke:black;stroke-width:1px;stroke-dasharray:1.13,3.35;"/>
        <path d="M430.234,61L629.236,61" style="fill:none;stroke:rgb(208,2,27);stroke-width:3px;"/>
        <path d="M46.74,221L192.882,222" style="fill:none;stroke:rgb(208,2,27);stroke-width:3px;"/>
        <path d="M192.882,222L430.234,61" style="fill:none;stroke:rgb(208,2,27);stroke-width:3px;"/>
        <path d="M191.846,61L192.882,222" style="fill:none;stroke:black;stroke-width:1px;stroke-dasharray:1.13,3.35;"/>
        <path d="M430.234,61L430.234,221" style="fill:none;stroke:black;stroke-width:1px;stroke-dasharray:1.13,3.35;"/>
    </g>
    <g transform="matrix(1,0,0,1,40.4688,24)">
        <text x="0px" y="0px" style="font-family:'ArialMT', 'Arial', sans-serif;font-size:15px;">G</text>
    </g>
    <g transform="matrix(1,0,0,1,637.188,228)">
        <text x="0px" y="0px" style="font-family:'ArialMT', 'Arial', sans-serif;font-size:15px;">S</text>
    </g>
    <g transform="matrix(1,0,0,1,15.0625,54)">
        <text x="0px" y="0px" style="font-family:'ArialMT', 'Arial', sans-serif;font-size:15px;">255</text>
    </g>
    <g transform="matrix(1,0,0,1,182.359,247)">
        <text x="0px" y="0px" style="font-family:'ArialMT', 'Arial', sans-serif;font-size:15px;">uG</text>
    </g>
    <g transform="matrix(1,0,0,1,419.703,247)">
        <text x="0px" y="0px" style="font-family:'ArialMT', 'Arial', sans-serif;font-size:15px;">oG</text>
    </g>
    <g>
        <g>
            <g transform="matrix(0.017,0,0,-0.017,85.0781,129)">
                <path d="M108,471C108,386 146,339 230,319L325,296C379,283 406,248 406,191C406,96 335,30 232,30C178,30 140,42 96,73L96,172L66,172C60,117 53,72 42,20C91,-5 144,-18 197,-18C352,-18 485,99 485,234C485,313 442,355 341,377L276,391C210,405 180,442 180,508C180,595 247,658 339,658C388,658 421,645 451,613L451,537L481,537C485,591 492,629 506,672C461,696 421,706 374,706C250,706 108,614 108,471Z" style="fill-rule:nonzero;stroke:black;stroke-width:8px;"/>
            </g>
            <g transform="matrix(0.017,0,0,-0.017,103.078,129)">
                <path d="M604,0L604,59L166,264L604,469L604,528L65,273L65,252L604,0Z" style="fill-rule:nonzero;stroke:black;stroke-width:8px;"/>
            </g>
            <g transform="matrix(0.017,0,0,-0.017,120.078,129)">
                <path d="M492,473L485,482L417,465L407,414C392,336 367,268 336,221C277,130 199,59 159,59C151,59 146,68 146,85C146,99 148,112 153,137L210,408C213,424 215,438 215,451C215,470 206,482 192,482C172,482 134,461 60,408L32,388L39,368L71,389C99,407 110,412 119,412C128,412 136,403 136,392C136,388 135,378 134,374L71,77C69,68 67,44 67,30C67,7 82,-11 102,-11C165,-11 286,101 370,239L333,97C326,73 322,46 322,31C322,6 333,-9 352,-9C378,-9 414,12 512,85L502,103L476,86C452,70 426,59 415,59C407,59 402,66 402,76C402,112 477,416 492,473ZM989,653C1066,653 1120,639 1176,603L1176,519L1203,519C1208,576 1216,619 1230,665C1147,695 1090,706 1021,706C929,706 856,683 784,632C667,548 605,424 605,274C605,87 714,-18 910,-18C967,-21 1114,6 1163,37C1183,193 1187,216 1188,219C1190,228 1202,238 1215,240L1247,246L1249,274C1210,270 1175,269 1124,269C1073,269 1037,270 995,274L990,246L1024,244C1099,240 1108,236 1108,212C1108,197 1088,84 1083,60C1038,36 999,27 945,27C779,27 693,120 693,297C693,443 752,653 989,653Z" style="fill-rule:nonzero;stroke:black;stroke-width:8px;"/>
            </g>
        </g>
        <g>
            <g transform="matrix(0.017,0,0,-0.017,85.0781,149)">
                <path d="M-7,-180C-8,-187 -8,-193 -8,-198C-8,-241 29,-276 74,-276C180,-276 290,-152 349,33L490,473L479,482C450,471 427,465 405,463L370,331C358,284 323,211 290,162C255,111 206,67 184,67C172,67 163,90 164,115L180,322C182,353 184,391 184,419C184,464 177,482 160,482C147,482 133,475 85,442L3,386L14,368L64,398C69,401 80,410 89,410C103,410 111,391 111,358C111,357 111,351 110,343L93,100L92,60C92,18 110,-11 135,-11C172,-11 256,74 331,187L282,16C231,-161 181,-234 111,-234C76,-234 49,-207 49,-172C49,-167 50,-159 51,-150L41,-146L-7,-180Z" style="fill-rule:nonzero;stroke:black;stroke-width:8px;"/>
            </g>
            <g transform="matrix(0.017,0,0,-0.017,98.0781,149)">
                <path d="M604,347L604,406L65,406L65,347L604,347ZM604,134L604,193L65,193L65,134L604,134Z" style="fill-rule:nonzero;stroke:black;stroke-width:8px;"/>
            </g>
            <g transform="matrix(0.017,0,0,-0.017,115.078,149)">
                <path d="M263,689C108,689 29,566 29,324C29,207 50,106 85,57C120,8 176,-20 238,-20C389,-20 465,110 465,366C465,585 400,689 263,689ZM245,654C342,654 381,556 381,316C381,103 343,15 251,15C154,15 113,116 113,360C113,571 150,654 245,654Z" style="fill-rule:nonzero;stroke:black;stroke-width:8px;"/>
            </g>
        </g>
    </g>
    <g>
        <g>
            <g transform="matrix(0.017,0,0,-0.017,491.094,129)">
                <path d="M108,471C108,386 146,339 230,319L325,296C379,283 406,248 406,191C406,96 335,30 232,30C178,30 140,42 96,73L96,172L66,172C60,117 53,72 42,20C91,-5 144,-18 197,-18C352,-18 485,99 485,234C485,313 442,355 341,377L276,391C210,405 180,442 180,508C180,595 247,658 339,658C388,658 421,645 451,613L451,537L481,537C485,591 492,629 506,672C461,696 421,706 374,706C250,706 108,614 108,471Z" style="fill-rule:nonzero;stroke:black;stroke-width:8px;"/>
            </g>
            <g transform="matrix(0.017,0,0,-0.017,509.094,129)">
                <path d="M65,0L604,252L604,273L65,528L65,469L503,264L65,59L65,0Z" style="fill-rule:nonzero;stroke:black;stroke-width:8px;"/>
            </g>
            <g transform="matrix(0.017,0,0,-0.017,526.094,129)">
                <path d="M17,152C17,46 62,-11 145,-11C200,-11 260,15 305,57C367,116 411,230 411,331C411,425 361,482 278,482C174,482 17,382 17,152ZM241,444C302,444 335,399 335,315C335,219 304,113 260,60C242,39 216,27 185,27C127,27 93,72 93,151C93,264 132,387 181,427C194,438 217,444 241,444ZM877,653C954,653 1008,639 1064,603L1064,519L1091,519C1096,576 1104,619 1118,665C1035,695 978,706 909,706C817,706 744,683 672,632C555,548 493,424 493,274C493,87 602,-18 798,-18C855,-21 1002,6 1051,37C1071,193 1075,216 1076,219C1078,228 1090,238 1103,240L1135,246L1137,274C1098,270 1063,269 1012,269C961,269 925,270 883,274L878,246L912,244C987,240 996,236 996,212C996,197 976,84 971,60C926,36 887,27 833,27C667,27 581,120 581,297C581,443 640,653 877,653Z" style="fill-rule:nonzero;stroke:black;stroke-width:8px;"/>
            </g>
        </g>
        <g>
            <g transform="matrix(0.017,0,0,-0.017,491.094,149)">
                <path d="M-7,-180C-8,-187 -8,-193 -8,-198C-8,-241 29,-276 74,-276C180,-276 290,-152 349,33L490,473L479,482C450,471 427,465 405,463L370,331C358,284 323,211 290,162C255,111 206,67 184,67C172,67 163,90 164,115L180,322C182,353 184,391 184,419C184,464 177,482 160,482C147,482 133,475 85,442L3,386L14,368L64,398C69,401 80,410 89,410C103,410 111,391 111,358C111,357 111,351 110,343L93,100L92,60C92,18 110,-11 135,-11C172,-11 256,74 331,187L282,16C231,-161 181,-234 111,-234C76,-234 49,-207 49,-172C49,-167 50,-159 51,-150L41,-146L-7,-180Z" style="fill-rule:nonzero;stroke:black;stroke-width:8px;"/>
            </g>
            <g transform="matrix(0.017,0,0,-0.017,504.094,149)">
                <path d="M604,347L604,406L65,406L65,347L604,347ZM604,134L604,193L65,193L65,134L604,134Z" style="fill-rule:nonzero;stroke:black;stroke-width:8px;"/>
            </g>
            <g transform="matrix(0.017,0,0,-0.017,521.094,149)">
                <path d="M16,23L16,-3C203,-3 203,0 239,0C275,0 275,-3 468,-3L468,82C353,77 307,81 122,77L304,270C401,373 431,428 431,503C431,618 353,689 226,689C154,689 105,669 56,619L39,483L68,483L81,529C97,587 133,612 200,612C286,612 341,558 341,473C341,398 299,324 186,204L16,23ZM958,253C958,366 877,446 763,446C715,446 679,443 626,396L626,605L931,604L931,689L574,690L574,322L594,316C641,363 668,377 717,377C813,377 873,309 873,201C873,90 809,25 700,25C646,25 596,43 582,69L536,151L512,137C535,80 547,48 561,4C589,-11 629,-20 672,-20C800,-20 958,89 958,253ZM1457,253C1457,366 1376,446 1262,446C1214,446 1178,443 1125,396L1125,605L1430,604L1430,689L1073,690L1073,322L1093,316C1140,363 1167,377 1216,377C1312,377 1372,309 1372,201C1372,90 1308,25 1199,25C1145,25 1095,43 1081,69L1035,151L1011,137C1034,80 1046,48 1060,4C1088,-11 1128,-20 1171,-20C1299,-20 1457,89 1457,253Z" style="fill-rule:nonzero;stroke:black;stroke-width:8px;"/>
            </g>
        </g>
    </g>
    <g>
        <g transform="matrix(0.017,0,0,-0.017,249.172,119)">
            <path d="M-7,-180C-8,-187 -8,-193 -8,-198C-8,-241 29,-276 74,-276C180,-276 290,-152 349,33L490,473L479,482C450,471 427,465 405,463L370,331C358,284 323,211 290,162C255,111 206,67 184,67C172,67 163,90 164,115L180,322C182,353 184,391 184,419C184,464 177,482 160,482C147,482 133,475 85,442L3,386L14,368L64,398C69,401 80,410 89,410C103,410 111,391 111,358C111,357 111,351 110,343L93,100L92,60C92,18 110,-11 135,-11C172,-11 256,74 331,187L282,16C231,-161 181,-234 111,-234C76,-234 49,-207 49,-172C49,-167 50,-159 51,-150L41,-146L-7,-180Z" style="fill-rule:nonzero;stroke:black;stroke-width:8px;"/>
        </g>
        <g transform="matrix(0.017,0,0,-0.017,262.172,119)">
            <path d="M604,347L604,406L65,406L65,347L604,347ZM604,134L604,193L65,193L65,134L604,134Z" style="fill-rule:nonzero;stroke:black;stroke-width:8px;"/>
        </g>
        <g transform="matrix(0.017,0,0,-0.017,279.172,119)">
            <path d="M124,111C94,111 67,83 67,53C67,23 94,-5 123,-5C155,-5 183,22 183,53C183,83 155,111 124,111ZM373,111C343,111 316,83 316,53C316,23 343,-5 372,-5C404,-5 432,22 432,53C432,83 404,111 373,111ZM622,111C592,111 565,83 565,53C565,23 592,-5 621,-5C653,-5 681,22 681,53C681,83 653,111 622,111Z" style="fill-rule:nonzero;stroke:black;stroke-width:8px;"/>
        </g>
    </g>
</svg>
